{"title":"Unser.Lied.fuer.Stockholm.GERMAN.720p.WEBRiP.H264","uid":13677280,"size":3667962895,"categoryP":"video","categoryS":"hd___tv_shows","magnet":"?xt=urn:btih:1b47a9f1eb0c5eea86f778a95545dd32470713aa&amp;dn=Unser.Lied.fuer.Stockholm.GERMAN.720p.WEBRiP.H264&amp;tr=udp%3A%2F%2Ftracker.leechers-paradise.org%3A6969&amp;tr=udp%3A%2F%2Fzer0day.ch%3A1337&amp;tr=udp%3A%2F%2Fopen.demonii.com%3A1337&amp;tr=udp%3A%2F%2Ftracker.coppersurfer.tk%3A6969&amp;tr=udp%3A%2F%2Fexodus.desync.com%3A6969","seeders":0,"leechers":0,"uploader":null,"files":1,"time":1456441417,"description":"Source: eurovision.de\r\n\r\n\r\nRunning order:\r\n\r\n01. Ella Endlich - Adrenalin\r\n02. Joco - Full Moon\r\n03. Gregorian - Masters of Chant\r\n04. Woods of Birnam - Lift Me Up (From the Underground)\r\n05. Luxuslärm - Solange Liebe in mir wohnt\r\n06. Keøma - Protected\r\n07. Avantasia - Mystery of a Blood Red Rose\r\n08. Alex Diehl - Nur ein Lied\r\n09. Jamie-Lee Kriewitz - Ghost\r\n10. Laura Pinski - Under the Sun We Are One\r\n\r\n\r\nMediaInfo:\r\n\r\nGeneral\r\nComplete name                            : Unser.Lied.fuer.Stockholm.GERMAN.720p.WEBRiP.H264.mp4\r\nFormat                                   : MPEG-4\r\nFormat profile                           : Base Media\r\nCodec ID                                 : isom\r\nFile size                                : 3.42 GiB\r\nDuration                                 : 2h 9mn\r\nOverall bit rate mode                    : Variable\r\nOverall bit rate                         : 3 773 Kbps\r\nWriting application                      : Lavf57.14.100\r\n\r\nVideo\r\nID                                       : 1\r\nFormat                                   : AVC\r\nFormat/Info                              : Advanced Video Codec\r\nFormat profile                           :   \r\nFormat settings, CABAC                   : Yes\r\nFormat settings, ReFrames                : 2 frames\r\nCodec ID                                 : avc1\r\nCodec ID/Info                            : Advanced Video Coding\r\nDuration                                 : 2h 9mn\r\nBit rate mode                            : Constant\r\nBit rate                                 : 3 584 Kbps\r\nWidth                                    : 1 280 pixels\r\nHeight                                   : 720 pixels\r\nDisplay aspect ratio                     : 16:9\r\nFrame rate mode                          : Variable\r\nFrame rate                               : 25.000 fps\r\nMinimum frame rate                       : 12.048 fps\r\nMaximum frame rate                       : 16 000.000 fps\r\nColor space                              : YUV\r\nChroma subsampling                       : 4:2:0\r\nBit depth                                : 8 bits\r\nScan type                                : Progressive\r\nBits/(Pixel*Frame)                       : 0.156\r\nStream size                              : 3.24 GiB (95%)\r\n\r\nAudio\r\nID                                       : 2\r\nFormat                                   : AAC\r\nFormat/Info                              : Advanced Audio Codec\r\nFormat profile                           : LC\r\nCodec ID                                 : 40\r\nDuration                                 : 2h 9mn\r\nBit rate mode                            : Variable\r\nBit rate                                 : 192 Kbps\r\nMaximum bit rate                         : 197 Kbps\r\nChannel(s)                               : 2 channels\r\nChannel positions                        : Front: L R\r\nSampling rate                            : 48.0 KHz\r\nCompression mode                         : Lossy\r\nStream size                              : 176 MiB (5%)","torrent":{"xt":"urn:btih:1b47a9f1eb0c5eea86f778a95545dd32470713aa","amp;dn":"Unser.Lied.fuer.Stockholm.GERMAN.720p.WEBRiP.H264","amp;tr":["udp%3A%2F%2Ftracker.leechers-paradise.org%3A6969","udp%3A%2F%2Fzer0day.ch%3A1337","udp%3A%2F%2Fopen.demonii.com%3A1337","udp%3A%2F%2Ftracker.coppersurfer.tk%3A6969","udp%3A%2F%2Fexodus.desync.com%3A6969"],"infoHash":"1b47a9f1eb0c5eea86f778a95545dd32470713aa","infoHashBuffer":{"type":"Buffer","data":[27,71,169,241,235,12,94,234,134,247,120,169,85,69,221,50,71,7,19,170]},"announce":[],"urlList":[]}}